:SAMPLES-PER-SECOND 30
:FULLY-SPECIFIED
:DEGREES
131
root  -50.6624 34.2973 -17.2995 -174.021 8.89355 -177.097
RightUpLeg  -3.54116 3.16388 5.49453
RightLeg  15.5152 5.07161 1.06117
RightFoot  -6.42765 -0.0528613 -0.42414
RightToes  -12.7995 -0.0450576 -0.116561
Spine  -2.41493 1.08218 -2.54174
Spine1  -4.85169 2.67327 -4.53066
HEad  -71.7672 -59.4377 18.9681
LeftShoulder1  -1.94126e-019 -3.10601e-018 -2.51263e-017
LeftArm  -28.1697 35.2905 -79.0314
LeftForeArm  29.7653 -8.79947 -1.54517
LeftHand  -0.314432 0.465471 7.42757
RightShoulder  -4.96962e-017 0 -2.36833e-017
RightArm  -7.5165 -16.8279 79.2441
RightForeArm  52.4076 35.404 4.98725
RightHand  -0.350521 -0.194466 -7.85609
LeftUpLeg  -23.3166 4.05351 11.7189
LeftLeg  14.9368 9.55824 1.89052
LeftFoot  9.3807 -0.135344 1.81105
LeftToes  -27.77 1.46665e-006 1.03344e-007
132
root  -51.1373 34.1212 -18.2842 -174.196 11.4281 -177.508
RightUpLeg  -3.90132 4.10674 3.82581
RightLeg  19.1725 6.29886 1.74053
RightFoot  -8.71429 -0.102135 -0.832684
RightToes  -15.1974 -0.056335 -0.137132
Spine  -2.39544 1.38948 -2.6741
Spine1  -4.82176 3.32666 -4.83387
HEad  -72.9744 -59.5837 19.6241
LeftShoulder1  -1.94126e-019 -3.10601e-018 -2.51263e-017
LeftArm  -30.6309 35.2588 -80.0218
LeftForeArm  30.9034 -7.80213 -1.36511
LeftHand  -0.354998 0.0259296 7.74292
RightShoulder  -4.96962e-017 0 -2.36833e-017
RightArm  -7.88862 -15.7127 79.3054
RightForeArm  52.7109 36.1016 5.14913
RightHand  -0.354857 -0.281464 -8.08007
LeftUpLeg  -23.0573 -0.584294 12.3405
LeftLeg  14.9342 8.75447 1.73234
LeftFoot  12.8767 -0.232524 2.22187
LeftToes  -33.5829 1.46665e-006 1.03344e-007
133
root  -51.7241 33.9401 -19.3599 -175.022 13.3581 -178.299
RightUpLeg  -3.63674 3.2107 1.37691
RightLeg  22.7608 8.29347 2.85355
RightFoot  -10.3204 -0.172855 -1.41973
RightToes  -19.276 -0.0774596 -0.170976
Spine  -2.1468 1.46156 -2.82507
Spine1  -4.34782 3.4503 -5.13284
HEad  -73.2515 -59.7685 18.8622
LeftShoulder1  -1.94126e-019 -3.10601e-018 -2.51263e-017
LeftArm  -31.3233 35.0381 -80.9631
LeftForeArm  30.5434 -7.60864 -1.33113
LeftHand  -0.349301 0.198688 7.85606
RightShoulder  -4.96962e-017 0 -2.36833e-017
RightArm  -8.12921 -14.8864 79.1969
RightForeArm  52.8985 36.3497 5.20347
RightHand  -0.372779 -0.0836665 -8.19111
LeftUpLeg  -23.0953 -0.266401 10.3224
LeftLeg  19.4787 6.03933 1.70214
LeftFoot  13.0535 -0.170782 1.65418
LeftToes  -28.2253 1.46665e-006 1.03344e-007
134
root  -52.3449 33.8454 -20.383 -175.826 14.4751 -179.668
RightUpLeg  -3.91128 0.396013 -1.95877
RightLeg  26.7132 10.1982 4.29996
RightFoot  -10.4123 -0.212686 -1.85267
RightToes  -26.6334 -0.121439 -0.2279
Spine  -1.91147 1.31639 -3.17243
Spine1  -3.92293 3.11099 -5.79431
HEad  -73.3116 -60.1928 18.1348
LeftShoulder1  -1.94126e-019 -3.10601e-018 -2.51263e-017
LeftArm  -30.7968 34.2621 -81.1856
LeftForeArm  30.3002 -7.70376 -1.34798
LeftHand  -0.353009 0.179946 7.91266
RightShoulder  -4.96962e-017 0 -2.36833e-017
RightArm  -8.63488 -14.6129 79.4
RightForeArm  53.0232 35.9907 5.10546
RightHand  -0.391139 0.116217 -8.30038
LeftUpLeg  -23.441 0.975699 7.48348
LeftLeg  24.257 6.1549 2.30119
LeftFoot  10.0539 -0.107346 1.38184
LeftToes  -25.396 1.46665e-006 1.03344e-007
135
root  -52.894 33.8677 -21.2965 -175.881 15.7859 179.493
RightUpLeg  -5.38087 -2.7226 -4.49499
RightLeg  30.7994 9.82133 4.98393
RightFoot  -8.62727 -0.148559 -1.48614
RightToes  -35.0787 -0.180412 -0.285669
Spine  -1.92139 1.31738 -3.44315
Spine1  -3.96654 2.98669 -6.27077
HEad  -72.1725 -60.8972 16.5403
LeftShoulder1  -1.94126e-019 -3.10601e-018 -2.51263e-017
LeftArm  -29.7995 33.3408 -80.6159
LeftForeArm  30.2429 -8.32205 -1.4585
LeftHand  -0.343644 0.0633461 7.54496
RightShoulder  -4.96962e-017 0 -2.36833e-017
RightArm  -10.7521 -15.3872 80.1663
RightForeArm  54.3245 35.1781 4.84405
RightHand  -0.412066 0.0863376 -8.78716
LeftUpLeg  -23.1632 2.64485 5.23765
LeftLeg  26.3183 6.26438 2.6014
LeftFoot  7.37442 -0.0597882 1.08928
LeftToes  -21.3357 1.46665e-006 1.03344e-007
136
root  -53.3578 33.9452 -22.0941 -175.539 17.6558 179.334
RightUpLeg  -7.33034 -5.47925 -5.77967
RightLeg  34.115 7.47942 4.35954
RightFoot  -5.97251 -0.0633228 -0.713625
RightToes  -40.4163 -0.221817 -0.317462
Spine  -1.92558 1.40041 -3.4565
Spine1  -3.98049 3.02923 -6.24501
HEad  -72.128 -60.9712 15.8401
LeftShoulder1  -1.94126e-019 -3.10601e-018 -2.51263e-017
LeftArm  -29.0533 32.4573 -79.9419
LeftForeArm  29.6052 -9.80105 -1.72187
LeftHand  -0.328032 0.0923457 7.23932
RightShoulder  -4.96962e-017 0 -2.36833e-017
RightArm  -12.1885 -16.3868 80.5288
RightForeArm  54.3949 34.3112 4.62977
RightHand  -0.419942 0.231736 -8.73603
LeftUpLeg  -22.5858 3.45936 4.00679
LeftLeg  27.271 7.6915 3.34068
LeftFoot  5.40783 -0.0392961 0.993591
LeftToes  -19.8518 1.46665e-006 1.03344e-007
137
root  -53.7092 34.0835 -22.7807 -175.14 19.5453 179.377
RightUpLeg  -8.79111 -8.29989 -6.17306
RightLeg  35.0715 3.48015 2.10506
RightFoot  -3.58959 -0.0184328 -0.0547202
RightToes  -41.705 -0.232245 -0.32455
Spine  -1.81222 1.32623 -3.3773
Spine1  -3.74953 2.78344 -6.04662
HEad  -73.5602 -60.1749 16.4743
LeftShoulder1  -1.94126e-019 -3.10601e-018 -2.51263e-017
LeftArm  -27.809 31.3975 -78.863
LeftForeArm  28.3844 -11.6407 -1.99908
LeftHand  -0.320093 0.251614 7.26771
RightShoulder  -4.96962e-017 0 -2.36833e-017
RightArm  -12.6615 -16.7833 80.902
RightForeArm  53.8784 32.5293 4.23467
RightHand  -0.417294 0.304938 -8.57641
LeftUpLeg  -21.4659 3.65298 3.25322
LeftLeg  26.9638 9.36231 4.00015
LeftFoot  4.1496 -0.0277741 0.928187
LeftToes  -18.2958 1.46665e-006 1.03344e-007
138
root  -53.9721 34.2885 -23.4204 -174.778 20.8052 179.614
RightUpLeg  -8.73237 -11.3964 -6.06132
RightLeg  31.9758 0.682882 0.355326
RightFoot  -2.56607 -0.0088614 0.163021
RightToes  -38.1819 -0.204125 -0.304623
Spine  -1.6261 1.05507 -3.2417
Spine1  -3.3634 2.17454 -5.75029
HEad  -74.6784 -59.0075 16.8041
LeftShoulder1  -1.94126e-019 -3.10601e-018 -2.51263e-017
LeftArm  -25.6619 29.9411 -77.1427
LeftForeArm  27.3958 -13.1036 -2.16606
LeftHand  -0.359264 0.160212 8.02431
RightShoulder  -4.96962e-017 0 -2.36833e-017
RightArm  -13.0991 -16.9727 81.2677
RightForeArm  54.4926 29.8397 3.60667
RightHand  -0.422877 0.603248 -8.2839
LeftUpLeg  -19.8043 2.92953 2.81059
LeftLeg  25.4877 11.3298 4.49051
LeftFoot  3.65824 -0.0255702 0.962239
LeftToes  -16.8517 1.46665e-006 1.03344e-007
139
root  -54.1716 34.4814 -23.931 -174.037 22.0862 179.905
RightUpLeg  -8.51489 -14.4846 -5.53809
RightLeg  26.763 -1.01182 -0.437886
RightFoot  -2.06322 -0.00619542 0.229905
RightToes  -32.9189 -0.164529 -0.271732
Spine  -1.64612 0.875059 -3.1216
Spine1  -3.38931 1.76042 -5.50547
HEad  -74.6757 -58.1687 16.3805
LeftShoulder1  -1.94126e-019 -3.10601e-018 -2.51263e-017
LeftArm  -23.1314 28.5956 -74.8194
LeftForeArm  27.2144 -15.5572 -2.53781
LeftHand  -0.347652 0.112147 7.6988
RightShoulder  -4.96962e-017 0 -2.36833e-017
RightArm  -13.6799 -17.5987 81.4704
RightForeArm  55.7026 27.265 3.01074
RightHand  -0.422805 0.803136 -8.03242
LeftUpLeg  -18.6019 1.92402 2.53844
LeftLeg  23.8234 13.6426 4.94085
LeftFoot  3.61657 -0.029607 1.09933
LeftToes  -15.8981 1.46665e-006 1.03344e-007
140
root  -54.3332 34.6225 -24.3102 -173.165 23.6781 -179.804
RightUpLeg  -8.94709 -17.291 -4.71755
RightLeg  23.5701 -4.53604 -1.64227
RightFoot  -0.363315 -0.0016174 0.232148
RightToes  -30.3277 -0.146184 -0.254237
Spine  -1.66631 0.833592 -3.03567
Spine1  -3.42656 1.66558 -5.33819
HEad  -74.8491 -57.2403 16.3799
LeftShoulder1  -1.94126e-019 -3.10601e-018 -2.51263e-017
LeftArm  -20.2211 26.776 -72.0627
LeftForeArm  27.4361 -18.0085 -2.96153
LeftHand  -0.333166 0.0172272 7.25675
RightShoulder  -4.96962e-017 0 -2.36833e-017
RightArm  -15.0137 -18.3404 81.6471
RightForeArm  56.6518 25.0026 2.51349
RightHand  -0.440611 0.825558 -8.33794
LeftUpLeg  -17.7462 2.0228 2.30308
LeftLeg  22.2284 15.2277 5.03283
LeftFoot  3.51495 -0.0310936 1.17056
LeftToes  -14.9187 1.46665e-006 1.03344e-007
141
root  -54.4857 34.7366 -24.6374 -172.319 25.3513 -179.595
RightUpLeg  -9.34383 -18.1812 -4.13431
RightLeg  22.1214 -7.1506 -2.3782
RightFoot  0.959118 0.0107315 0.0834747
RightToes  -28.3175 -0.132508 -0.240104
Spine  -1.64358 0.748095 -2.97399
Spine1  -3.37704 1.4922 -5.22312
HEad  -75.6642 -55.9311 16.949
LeftShoulder1  -1.94126e-019 -3.10601e-018 -2.51263e-017
LeftArm  -18.2752 24.6672 -69.274
LeftForeArm  28.2518 -19.3845 -3.20977
LeftHand  -0.333816 -0.106803 7.11824
RightShoulder  -4.96962e-017 0 -2.36833e-017
RightArm  -16.3123 -18.8523 81.6516
RightForeArm  56.4286 22.6649 2.06353
RightHand  -0.449765 0.690898 -8.68551
LeftUpLeg  -16.8391 2.78561 1.97098
LeftLeg  20.2885 16.2629 4.77148
LeftFoot  3.46785 -0.0318649 1.21417
LeftToes  -14.2073 1.46665e-006 1.03344e-007
142
root  -54.628 34.8104 -24.9295 -171.766 26.8996 -179.397
RightUpLeg  -9.15713 -18.2304 -3.97582
RightLeg  20.3557 -8.17246 -2.43819
RightFoot  2.13774 0.0251454 -0.110144
RightToes  -28.8806 -0.136289 -0.244111
Spine  -1.54111 0.560916 -2.87065
Spine1  -3.16077 1.12114 -5.02091
HEad  -76.3606 -54.1323 17.1402
LeftShoulder1  -1.94126e-019 -3.10601e-018 -2.51263e-017
LeftArm  -17.162 22.5206 -66.6859
LeftForeArm  29.0437 -19.9035 -3.32998
LeftHand  -0.341997 -0.072296 7.33486
RightShoulder  -4.96962e-017 0 -2.36833e-017
RightArm  -17.6117 -19.1928 81.401
RightForeArm  56.0978 20.5376 1.67105
RightHand  -0.43804 0.450085 -8.78884
LeftUpLeg  -16.0303 3.67037 1.63995
LeftLeg  18.9109 17.0253 4.5548
LeftFoot  3.28615 -0.0292599 1.19886
LeftToes  -13.5899 1.46665e-006 1.03344e-007
